<svg width="40" height="40" viewBox="0 0 40 40" xmlns="http://www.w3.org/2000/svg"><path d="M37.5 4.268 35.732 2.5 2.5 35.732 4.268 37.5l2.5-2.5H32.5a2.503 2.503 0 0 0 2.5-2.5V6.768Zm-5 28.232H9.268l9.741-9.741 2.974 2.973a2.5 2.5 0 0 0 3.535 0L27.5 23.75l5 4.997Zm0-7.29-3.232-3.232a2.5 2.5 0 0 0-3.535 0L23.75 23.96l-2.971-2.971L32.5 9.268Zm-25 2.29v-3.75l6.25-6.246 1.717 1.717 1.77-1.77-1.719-1.719a2.5 2.5 0 0 0-3.535 0L7.5 20.215V7.5h20V5h-20A2.502 2.502 0 0 0 5 7.5v20Z"/><path data-name="&amp;lt;Transparent Rectangle&amp;gt;" d="M0 0h40v40H0V0z" style="fill:none"/></svg>